/* XPM */
static char *result[] = {
/* columns rows colors chars-per-pixel */
"32 32 21 1 ",
"  c black",
". c #241D0D",
"X c #222124",
"o c #714333",
"O c #82634B",
"+ c #8A7357",
"@ c #928263",
"# c None",
"$ c None",
"% c #A67596",
"& c #A99D86",
"* c #D6D5DF",
"= c gray89",
"- c #E7E7E7",
"; c #E2E2E8",
": c #E4E4E8",
"> c #ECECED",
", c #EDEDEE",
"< c #F0E5ED",
"~ c #FF0000",
"P c #0000ff",
/* pixels */
"################################",
"################################",
"################################",
"############XX#$$#XX#####$#$$###",
"###$$######X--X#$X--X###########",
"###########X--X##X--X###########",
"###########X--X..X--X###########",
"##########.X--X@@X--X.##########",
"########..OX-&@@@@&-XO..########",
"######..+.oO@@@@@@@@Oo.+..######",
"#####.@++.oooooooooooo.++@.#####",
"#####.@@@+OooooooooooO@@@@.#####",
"######.@@@@@@@@@@@@@@@@@@.######",
"#######...+@@@@@@@@@@+...#######",
"########X-............-X########",
"#######X;--------------;X#######",
"#######X;--~---------~-;X$######",
"#######X*---~~-----~~--*X#######",
"#######X*---~~-----~~--*X#######",
"#######X*---<<--%--<<--*X#######",
"########X*--<<-X-X-<<-* ########",
"#########X:>-------,>: #########",
"###########XX=----=XX###########",
"##########X----------X##########",
"####$##$##X-PPPPPPPPPPPPP#######",
"#####$###X--P----P-*--X#########",
"#####$$##X--P----P-*--X#########",
"#########X--*----P-*--X###$$####",
"##########XX--------XX###$#$####",
"#######$###X-*XXXX*-X###########",
"###########X-X####X-X###########",
"###########XX######XX###########"
};
